<svg height="512pt" viewBox="0 -49 512 512" width="512pt" xmlns="http://www.w3.org/2000/svg"><path d="m332.109375 255.601562h-262.011719l23.265625-135.914062h215.480469zm0 0" fill="#afe6ff"/><path d="m210.984375 149.699219h-36.613281c-4.835938 0-8.753906-3.917969-8.753906-8.75v-5.035157c0-4.835937 3.917968-8.753906 8.753906-8.753906h36.613281c4.832031 0 8.75 3.917969 8.75 8.753906v5.035157c0 4.832031-3.917969 8.75-8.75 8.75zm0 0" fill="#c74030"/><path d="m95.882812 415.109375c-16.835937 0-30.484374-13.648437-30.484374-30.488281v-80.910156c0-16.835938 13.648437-30.484376 30.484374-30.484376 16.835938 0 30.484376 13.648438 30.484376 30.484376v80.910156c0 16.839844-13.648438 30.488281-30.484376 30.488281zm0 0" fill="#373c41"/><path d="m306.324219 415.109375c-16.839844 0-30.488281-13.648437-30.488281-30.488281v-80.910156c0-16.835938 13.648437-30.484376 30.488281-30.484376 16.835937 0 30.484375 13.648438 30.484375 30.484376v80.910156c0 16.839844-13.648438 30.488281-30.484375 30.488281zm0 0" fill="#373c41"/><path d="m332.109375 267.960938h-262.011719c-3.644531 0-7.101562-1.609376-9.449218-4.394532-2.347657-2.78125-3.347657-6.460937-2.734376-10.050781l23.269532-135.914063c1.015625-5.933593 6.160156-10.273437 12.179687-10.273437h215.480469c6.019531 0 11.164062 4.339844 12.179688 10.273437l23.265624 135.914063c.617188 3.589844-.382812 7.269531-2.730468 10.050781-2.347656 2.785156-5.804688 4.394532-9.449219 4.394532zm-247.359375-24.71875h232.703125l-19.035156-111.195313h-194.632813zm0 0" fill="#fa503c"/><path d="m346.460938 371.328125h-290.714844c-9.230469 0-16.714844-7.484375-16.714844-16.714844v-79.179687c0-24.664063 19.992188-44.65625 44.65625-44.65625h234.832031c24.660157 0 44.65625 19.992187 44.65625 44.65625v79.179687c0 9.234375-7.484375 16.714844-16.714843 16.714844zm0 0" fill="#fa503c"/><path d="m121.816406 302.46875c0-14.78125-11.972656-26.761719-26.742187-26.761719s-26.746094 11.980469-26.746094 26.761719c0 14.777344 11.976563 26.757812 26.746094 26.757812s26.742187-11.980468 26.742187-26.757812zm0 0" fill="#ffda52"/><path d="m333.875 302.46875c0-14.78125-11.972656-26.761719-26.742188-26.761719-14.769531 0-26.742187 11.980469-26.742187 26.761719 0 14.777344 11.972656 26.757812 26.742187 26.757812 14.769532 0 26.742188-11.980468 26.742188-26.757812zm0 0" fill="#ffda52"/><path d="m327.769531 257.703125c-2.40625 0-4.8125-.882813-6.695312-2.667969-3.898438-3.699218-4.0625-9.859375-.363281-13.757812l27.152343-28.632813c3.699219-3.898437 9.855469-4.0625 13.757813-.363281 3.898437 3.699219 4.0625 9.859375.363281 13.757812l-27.152344 28.632813c-1.914062 2.015625-4.484375 3.03125-7.0625 3.03125zm0 0" fill="#fa503c"/><path d="m74.164062 257.703125c-2.578124 0-5.148437-1.015625-7.0625-3.03125l-27.15625-28.632813c-3.699218-3.898437-3.535156-10.058593.363282-13.757812 3.902344-3.695312 10.0625-3.535156 13.757812.363281l27.15625 28.632813c3.699219 3.898437 3.535156 10.058594-.363281 13.757812-1.882813 1.785156-4.292969 2.667969-6.695313 2.667969zm0 0" fill="#fa503c"/><path d="m239.738281 392.113281h-77.273437c-4.722656 0-8.550782-3.828125-8.550782-8.550781v-25.007812c0-4.722657 3.828126-8.550782 8.550782-8.550782h77.273437c4.726563 0 8.554688 3.828125 8.554688 8.550782v25.007812c0 4.722656-3.828125 8.550781-8.554688 8.550781zm0 0" fill="#a5c8cd"/><path d="m276.195312 230.777344h-15.011718c0-9.359375-7.613282-16.972656-16.972656-16.972656-9.359376 0-16.972657 7.613281-16.972657 16.972656h-15.007812c0-17.636719 14.347656-31.984375 31.980469-31.984375 17.636718 0 31.984374 14.347656 31.984374 31.984375zm0 0" fill="#373c41"/><path d="m247.242188 294.777344h-92.28125c-4.746094 0-8.597657 3.847656-8.597657 8.597656s3.851563 8.597656 8.597657 8.597656h92.28125c4.75 0 8.597656-3.847656 8.597656-8.597656s-3.847656-8.597656-8.597656-8.597656zm0 0" fill="#c74030"/><path d="m231.175781 321.847656h-60.144531c-4.75 0-8.597656 3.847656-8.597656 8.597656s3.847656 8.597657 8.597656 8.597657h60.144531c4.75 0 8.597657-3.847657 8.597657-8.597657s-3.847657-8.597656-8.597657-8.597656zm0 0" fill="#c74030"/><path d="m269.03125 155.722656c0 13.078125-10.601562 23.679688-23.675781 23.679688-13.078125 0-23.679688-10.601563-23.679688-23.679688 0-13.074218 10.601563-23.675781 23.679688-23.675781 13.074219 0 23.675781 10.601563 23.675781 23.675781zm0 0" fill="#ffb69e"/><path d="m386.859375 231.832031h-36.054687c-5.222657 0-9.457032-4.234375-9.457032-9.457031v-19.269531c0-5.222657 4.234375-9.457031 9.457032-9.457031h36.054687c5.226563 0 9.460937 4.234374 9.460937 9.457031v19.269531c0 5.222656-4.234374 9.457031-9.460937 9.457031zm0 0" fill="#c74030"/><path d="m15.070312 231.832031h36.054688c5.222656 0 9.460938-4.234375 9.460938-9.457031v-19.269531c0-5.222657-4.234376-9.457031-9.460938-9.457031h-36.054688c-5.222656 0-9.457031 4.234374-9.457031 9.457031v19.269531c0 5.222656 4.234375 9.457031 9.457031 9.457031zm0 0" fill="#c74030"/><path d="m176.816406 230.777344h-84.0625v-22.355469c0-9.875 8.003906-17.878906 17.878906-17.878906h48.304688c9.875 0 17.878906 8.003906 17.878906 17.878906zm0 0" fill="#6c9baa"/><path d="m147.695312 183.109375h-25.820312c-3.1875 0-5.769531-2.582031-5.769531-5.769531v-8.574219c0-3.1875 2.582031-5.769531 5.769531-5.769531h25.820312c3.1875 0 5.769532 2.582031 5.769532 5.769531v8.574219c0 3.1875-2.582032 5.769531-5.769532 5.769531zm0 0" fill="#6c9baa"/><path d="m303.359375 217.09375c-.035156-16.511719-12.183594-29.972656-27.082031-30.007812-21.386719-.050782-39.132813-.09375-61.589844-.148438-14.898438-.035156-27.109375 13.371094-27.222656 29.882812l-.15625 23.980469 116.089844.277344zm0 0" fill="#64afff"/><path d="m276.628906 230.902344h-15.074218c0-9.398438-7.644532-17.042969-17.042969-17.042969-9.398438 0-17.046875 7.644531-17.046875 17.042969h-15.070313c0-17.707032 14.40625-32.117188 32.117188-32.117188 17.707031 0 32.117187 14.410156 32.117187 32.117188zm0 0" fill="#373c41"/><path d="m484.460938 130.988281h-49.703126c-6.804687 0-12.316406 5.515625-12.316406 12.316407v68.011718h-411.589844c-4.144531 0-7.507812 3.363282-7.507812 7.507813v23.925781c0 4.144531 3.363281 7.507812 7.507812 7.507812h411.589844v163.5h74.335938v-270.453124c0-6.804688-5.511719-12.316407-12.316406-12.316407zm0 0" fill="#3c5a73"/><g fill="#b4d7dc"><path d="m65.214844 250.257812 16.671875-38.941406h-43.375l-16.671875 38.941406zm0 0"/><path d="m166.703125 250.257812 16.675781-38.941406h-43.375l-16.675781 38.941406zm0 0"/><path d="m268.695312 250.257812 16.671876-38.941406h-43.375l-16.671876 38.941406zm0 0"/><path d="m370.183594 250.257812 16.675781-38.941406h-43.375l-16.675781 38.941406zm0 0"/></g><path d="m78.207031 42.402344-26.257812-7.417969c-2.007813-.5625-4.09375.601563-4.660157 2.609375l-3.410156 12.074219c-.566406 2.007812.601563 4.09375 2.605469 4.660156l6.941406 1.957031v23.917969h-53.425781v15.074219h60.960938c4.160156 0 7.535156-3.375 7.535156-7.539063v-27.195312l4.25 1.199219c2.003906.566406 4.089844-.601563 4.65625-2.605469l3.410156-12.074219c.566406-2.011719-.601562-4.09375-2.605469-4.660156zm0 0" fill="#6c9baa"/><path d="m102.414062 59.679688-76.492187-21.601563c-2.671875-.753906-4.222656-3.53125-3.46875-6.203125l7.964844-28.214844c.753906-2.671875 3.53125-4.222656 6.203125-3.46875l90.511718 25.558594c3.589844 1.015625 4.863282 5.445312 2.359376 8.210938l-21.988282 24.257812c-1.28125 1.410156-3.253906 1.980469-5.089844 1.460938zm0 0" fill="#a5c8cd"/><path d="m47.785156 17.652344c0 2.566406-2.082031 4.648437-4.648437 4.648437-2.570313 0-4.652344-2.082031-4.652344-4.648437 0-2.570313 2.082031-4.652344 4.652344-4.652344 2.566406 0 4.648437 2.082031 4.648437 4.652344zm0 0" fill="#fa503c"/><path d="m507.710938 415.109375h-96.203126c-2.367187 0-4.289062-1.921875-4.289062-4.289063v-12.210937c0-2.367187 1.921875-4.289063 4.289062-4.289063h96.203126c2.367187 0 4.289062 1.921876 4.289062 4.289063v12.210937c0 2.367188-1.921875 4.289063-4.289062 4.289063zm0 0" fill="#46738c"/></svg>